<svg id="Layer_1" data-name="Layer 1" xmlns="http://www.w3.org/2000/svg" viewBox="0 0 143.43 1003.43"><defs><style>.cls-1{fill:none;}.cls-2{fill:#e5ecfa;}.cls-3{fill:#727b91;}.cls-4{fill:#d8dae0;}.cls-5{fill:#9fa5b4;}.cls-6{fill:#eaeffb;}.cls-7{fill:#fff;}.cls-8{fill:#eaf0fb;}.cls-9{fill:#c5d4f4;}.cls-10{fill:#99a0b0;}.cls-11{fill:#838b9e;}.cls-12{fill:#6d768d;}.cls-13{fill:#e5ebfa;}.cls-14{fill:#a2a8b7;}.cls-15{fill:#c7d5f4;}.cls-16{fill:#fefeff;}.cls-17{fill:#fafbfe;}.cls-18{fill:#949bac;}.cls-19{fill:#868da0;}</style></defs><rect class="cls-1" width="143.43" height="1003.43"/><ellipse class="cls-2" cx="107.57" cy="35.84" rx="17.93" ry="17.92"/><ellipse class="cls-3" cx="107.57" cy="179.18" rx="17.93" ry="17.92"/><ellipse class="cls-4" cx="107.57" cy="250.85" rx="17.93" ry="17.92"/><ellipse class="cls-5" cx="107.57" cy="322.53" rx="17.93" ry="17.92"/><ellipse class="cls-6" cx="107.57" cy="394.2" rx="17.93" ry="17.92"/><ellipse class="cls-7" cx="107.57" cy="465.88" rx="17.93" ry="17.92"/><ellipse class="cls-8" cx="107.57" cy="609.23" rx="17.93" ry="17.92"/><ellipse class="cls-9" cx="107.57" cy="680.89" rx="17.93" ry="17.92"/><ellipse class="cls-10" cx="107.57" cy="752.57" rx="17.93" ry="17.92"/><ellipse class="cls-11" cx="107.57" cy="824.24" rx="17.93" ry="17.92"/><ellipse class="cls-12" cx="35.86" cy="107.51" rx="17.93" ry="17.92"/><ellipse class="cls-13" cx="35.86" cy="250.85" rx="17.93" ry="17.92"/><ellipse class="cls-14" cx="35.86" cy="322.53" rx="17.93" ry="17.92"/><ellipse class="cls-15" cx="35.86" cy="465.88" rx="17.93" ry="17.92"/><ellipse class="cls-16" cx="35.86" cy="537.55" rx="17.93" ry="17.92"/><ellipse class="cls-17" cx="35.86" cy="609.23" rx="17.93" ry="17.92"/><ellipse class="cls-6" cx="35.86" cy="680.89" rx="17.93" ry="17.92"/><ellipse class="cls-18" cx="35.86" cy="824.24" rx="17.93" ry="17.92"/><ellipse class="cls-19" cx="35.86" cy="895.92" rx="17.93" ry="17.92"/></svg>