<svg id="logo" xmlns="http://www.w3.org/2000/svg" viewBox="0 0 4098.58 855.25"><defs><style>.cls-1{fill:#fff;}.cls-2{fill:#028fc5;}.cls-3{fill:#02abeb;}.cls-4{fill:#4cc4f1;}.cls-5{fill:#535e79;}.cls-6{fill:#6f7fa3;}.cls-7{fill:#bdcef2;}.cls-8{fill:#00aeef;}.cls-9{fill:#eee;}</style></defs><g id="circle"><circle class="cls-1" cx="385" cy="385" r="385"/></g><g id="flower"><path class="cls-2" d="M487.27,557.66c-18.75,0-52.52-6.71-64.16-26.12-13.19,8.25-40.19,27.72-58,63.37a156.69,156.69,0,0,0-15.9,56.54,182.37,182.37,0,0,0,50,11.71c41.79,3.66,75-8.15,92.45-15.94-7.39-15.59-3.06-41.19,1.14-53.51a101.88,101.88,0,0,1,26.62-40.89A116.65,116.65,0,0,1,487.27,557.66Z" transform="translate(-190 -133)"/><path class="cls-3" d="M487.27,475.76a116,116,0,0,1,31.5,4.76c-12-11.34-21.07-26.52-26.85-40.8-5.13-12.68-8.71-38.69-.66-54.15-13.86-7.82-49.77-25.5-95.47-19.29a145.7,145.7,0,0,0-47.26,15,143.19,143.19,0,0,0,9.72,46.41c17.08,43.45,51,66.12,64.76,74.25C434.45,482.49,467.88,475.76,487.27,475.76Z" transform="translate(-190 -133)"/><path class="cls-4" d="M582.21,245.65a183.59,183.59,0,0,0-36.28,38.73c-24.19,34.87-30.37,69.95-32.23,89,31.48,1.25,53.91,31.47,64.76,58.29a66.67,66.67,0,0,1,2.95,9.64,85.48,85.48,0,0,1,2.43-8.77c9.45-27.74,35.39-58.41,66.74-58.41l.42,0a186.36,186.36,0,0,0-30-86.35A183.09,183.09,0,0,0,582.21,245.65Z" transform="translate(-190 -133)"/><path class="cls-5" d="M647.39,478A116.48,116.48,0,0,1,676.33,474c19.24,0,54.33,7.07,65,27.69,14.43-9,46.41-31.84,63.91-74a153.24,153.24,0,0,0,11.22-47.53,142.16,142.16,0,0,0-55.59-17.3c-44.75-4.2-78.49,14.52-90.56,22,9,15.26,4.43,42.78,0,55.7A102.74,102.74,0,0,1,647.39,478Z" transform="translate(-190 -133)"/><path class="cls-6" d="M741.47,528.16c-10.51,20.68-45.23,27.76-65.14,27.76a114.75,114.75,0,0,1-25.56-3.17c9.9,10.75,17.57,24,22.65,36.6,5.4,13.35,9.09,41.49-.71,56.51,12.68,7.39,43.57,23,84.79,20.71a150.09,150.09,0,0,0,59.65-16.21,156.12,156.12,0,0,0-11.87-48.63C787.53,560,756,537.27,741.47,528.16Z" transform="translate(-190 -133)"/><path class="cls-7" d="M586.89,597.41a71.26,71.26,0,0,1-3.6-12.63,102.33,102.33,0,0,1-4,17c-9.14,26.8-33.68,56.25-63.61,58.22.54,17.1,4.15,51.45,26.8,85.06,17.94,26.63,42.31,44.6,43,43.93.18-.17-1-1.7-2-3a161,161,0,0,0,40.95-41c24.81-36,28.1-72.74,28.53-89.27C620.78,655.34,597.88,624.6,586.89,597.41Z" transform="translate(-190 -133)"/><path class="cls-8" d="M754.09,714.34" transform="translate(-190 -133)"/><path class="cls-2" d="M562.42,544.44c-5.31,3.06-15.95,6.68-22.42,3.09a52.1,52.1,0,0,0-6.06,27.4,51.22,51.22,0,0,0,4.74,18.59,59.43,59.43,0,0,0,16.06-4.86,61.18,61.18,0,0,0,23.54-19.61c-4.63-3.2-7.59-11.15-8.41-15.32a33.14,33.14,0,0,1,.85-15.91A38.51,38.51,0,0,1,562.42,544.44Z" transform="translate(-190 -133)"/><path class="cls-3" d="M549,521.27a37.85,37.85,0,0,1,9.68-3.8,38.8,38.8,0,0,1-14.26-7.15c-3.52-2.75-8.78-9.52-9-15.21-5.2.06-18.24.92-30.15,10.14a47.82,47.82,0,0,0-10.92,12,47,47,0,0,0,10.34,11.54c11.92,9.5,25.23,10.36,30.44,10.42C535.2,531.8,543.55,524.44,549,521.27Z" transform="translate(-190 -133)"/><path class="cls-4" d="M538.3,440.68a60.16,60.16,0,0,0-3.94,16.88A61.52,61.52,0,0,0,539.79,488c9.1-4.79,20.38.09,27.83,5.9a21.88,21.88,0,0,1,2.41,2.25,28,28,0,0,1-.74-2.88c-1.86-9.39.46-22.3,9.33-27.42l.12-.06a60.76,60.76,0,0,0-22.59-19.53A59.85,59.85,0,0,0,538.3,440.68Z" transform="translate(-190 -133)"/><path class="cls-5" d="M594.68,495.74a38.22,38.22,0,0,1,7.54-5.84c5.44-3.15,16.52-6.88,22.92-2.8a52.74,52.74,0,0,0,6-31.37,49.8,49.8,0,0,0-4.59-15.28A46.61,46.61,0,0,0,608,444.64a48.23,48.23,0,0,0-22,21c5,2.85,8.24,11.38,9.11,15.75A33.65,33.65,0,0,1,594.68,495.74Z" transform="translate(-190 -133)"/><path class="cls-6" d="M629.49,494.57c.4,7.56-8.26,15.24-13.89,18.49a37.75,37.75,0,0,1-7.75,3.28A40.21,40.21,0,0,1,620.24,523c3.71,2.89,9.35,10.25,9,16.1a49.84,49.84,0,0,0,27.36-8,49.12,49.12,0,0,0,14.23-14.32A51,51,0,0,0,659.55,505,53.38,53.38,0,0,0,629.49,494.57Z" transform="translate(-190 -133)"/><path class="cls-7" d="M597.08,539.41a24.11,24.11,0,0,1-3.08-3,33.4,33.4,0,0,1,1.66,5.45c1.79,9.07-.34,21.41-8.48,26.86a52.85,52.85,0,0,0,21.47,19.68c9.43,4.6,19.25,5.7,19.34,5.4,0-.08-.56-.32-1.07-.51a52.67,52.67,0,0,0,4.9-18.27,54.09,54.09,0,0,0-6.52-29.91C616.13,550.25,604.63,545.3,597.08,539.41Z" transform="translate(-190 -133)"/><path class="cls-8" d="M663.47,545.16" transform="translate(-190 -133)"/><path class="cls-2" d="M575.14,520.91c-1.57,0-4.4-.56-5.38-2.19A13.46,13.46,0,0,0,564.9,524a13,13,0,0,0-1.34,4.74,15.33,15.33,0,0,0,12-.36,7,7,0,0,1,.09-4.48,8.51,8.51,0,0,1,2.24-3.43A10.09,10.09,0,0,1,575.14,520.91Z" transform="translate(-190 -133)"/><path class="cls-3" d="M575.14,514.05a9.36,9.36,0,0,1,2.64.4,10,10,0,0,1-2.25-3.43,6.4,6.4,0,0,1-.06-4.53,12.88,12.88,0,0,0-8-1.62,12.05,12.05,0,0,0-4,1.26,12,12,0,0,0,.81,3.89,12.82,12.82,0,0,0,5.43,6.22C570.71,514.61,573.51,514.05,575.14,514.05Z" transform="translate(-190 -133)"/><path class="cls-4" d="M583.1,494.75a15.42,15.42,0,0,0-3,3.25,15.71,15.71,0,0,0-2.7,7.46c2.64.11,4.52,2.64,5.43,4.89a5.3,5.3,0,0,1,.24.81c.07-.28.14-.53.21-.74.79-2.32,3-4.89,5.59-4.89h0a15.6,15.6,0,0,0-2.52-7.24A15.3,15.3,0,0,0,583.1,494.75Z" transform="translate(-190 -133)"/><path class="cls-5" d="M588.56,514.23a9.9,9.9,0,0,1,2.43-.33c1.61,0,4.56.59,5.45,2.32a13.49,13.49,0,0,0,5.36-6.2,12.91,12.91,0,0,0,.94-4,12,12,0,0,0-4.66-1.45,12.35,12.35,0,0,0-7.59,1.85c.75,1.28.37,3.58,0,4.67A8.49,8.49,0,0,1,588.56,514.23Z" transform="translate(-190 -133)"/><path class="cls-6" d="M596.45,518.44c-.88,1.73-3.79,2.33-5.46,2.33a9.39,9.39,0,0,1-2.14-.27,10.44,10.44,0,0,1,1.9,3.07c.45,1.12.76,3.48-.06,4.74A12.74,12.74,0,0,0,597.8,530a12.53,12.53,0,0,0,5-1.35,13.19,13.19,0,0,0-1-4.08A13.7,13.7,0,0,0,596.45,518.44Z" transform="translate(-190 -133)"/><path class="cls-7" d="M583.49,524.25a6.86,6.86,0,0,1-.3-1.06,8.59,8.59,0,0,1-.33,1.42c-.77,2.25-2.83,4.72-5.33,4.88a13.58,13.58,0,0,0,5.85,10.82,1,1,0,0,0-.17-.25A13.54,13.54,0,0,0,589,529.14C586.33,529.1,584.41,526.53,583.49,524.25Z" transform="translate(-190 -133)"/><path class="cls-8" d="M597.51,534.05" transform="translate(-190 -133)"/></g><path class="cls-9" d="M1462.64,755q0,44.15-49.21,44.14-22.28,0-32.62-7.81t-10.35-26.56l.39-8.6.78-9v-20.7l-3.52-95.32q0-80.07-17.18-108.39T1293.5,494.5q-21.48,0-42,13.28t-32.22,39.84q-11.73,26.57-11.72,142.58a385.38,385.38,0,0,0,2.54,39.84q2.54,23.84,2.54,24.61,0,21.5-13.48,35t-40,13.48h-10.55q-40.23,0-40.23-31.25V761.29q0-6.24,3.9-21.48l5.86-21.49q7-33.2,7-135.93v-148l1.95-87.11.39-12.11q.39-12.11.39-23.05a118.08,118.08,0,0,0-1.56-19.92l-2-8.2q-2.73-12.1-2.73-14.45,0-18.36,21.87-18.36h10.16q39.84,0,50,33.59,4.69,14.85,6.25,64.65t4.49,75q2.94,25.19,16.6,25.19c3.39,0,8.21-1,14.46-3.12l8.59-3.52q40.62-18,72.66-18,71.08,0,99.22,58.6,19.53,40.62,19.53,159.37,0,43.37,8.59,73.64T1462.64,755Z" transform="translate(-190 -133)"/><path class="cls-9" d="M1837.88,780.82q0,26.17-52.74,26.18-9.37,0-34.18-9.58t-31.25-9.57q-6.43,0-42.38,13.48t-63.28,13.48h-9q-42.58,0-73.44-27.93t-30.86-76.37q0-98.43,124.61-122.66,80.86-16,83.59-17.18,19.14-9.76,19.14-35.35t-16.21-43Q1695.69,475,1667.76,475t-65.82,19q-37.89,18.94-52,18.94-25.4,0-25.39-34.76,0-21.87,40-41.41t91.21-19.53h19.53q38.28,0,68,14.45t45.31,39.07q22.26,34.77,22.27,159,0,70.32,2.93,87.5t13.47,34.57Q1837.88,769.1,1837.88,780.82Zm-197.66-18.75h12.11q36.33,0,64.06-31.25,15.24-17.18,15.24-64.06l.39-5.08v-9.76q0-29.29-24.22-29.3h-12.5L1675,624.18l-10.55,1.17q-35.94,0-59,20.12t-23,47.85V707q0,21.09,15,38.08T1640.22,762.07Z" transform="translate(-190 -133)"/><path class="cls-9" d="M1895.93,271.45q0-30.85,50.78-30.86h7q36.33,0,41,30.08v84.76l-.78,29.3v14.45l-1.17,44.53v14.46l-.39,7.81v14.84l-.39,7.43v14.84l-.39,7.42v36.72l1.17,50q.39,7,.39,35.55t7.62,60.74q7.62,32.22,19.33,51.17t11.72,32.23q0,13.27-16.21,23.43T1969,810.51H1955.3q-55.08,0-55.08-43.75,0-3.12,3.13-20.31t3.51-62.89l2.35-93.36.39-7.42V567.93l.39-14.84V538.25l.39-7.43V516l.39-14.84V486.29l.39-14.84V456.21l.39-14.84V367.93q0-44.52-7.81-67.18T1895.93,271.45Z" transform="translate(-190 -133)"/><path class="cls-9" d="M2420.77,609.34v12.89q0,34.77-11.33,71.48-23.05,74.63-90.62,107-39.08,18.75-77.35,18.75h-13.28a155.56,155.56,0,0,1-67.58-14.85q-62.1-29.68-82.42-98.44a254.73,254.73,0,0,1-10.94-73.82V612.46A248,248,0,0,1,2078.58,539q22.27-72.66,88.28-103.91,34-16.41,69.53-16.41h19.54q33.59,0,66.4,14.46,65.63,28.9,88.28,103.12Q2420.77,569.11,2420.77,609.34ZM2233.27,766h7.81q39.45,0,64.85-34.77t25.39-87.89l.78-8.59.39-13.28V603.87q0-58.2-23.63-95.9t-63.09-37.69H2238q-38.67,0-65,38.28t-26.37,101.56v26.56q.78,9.38.78,12.89,0,44.53,24.61,80.47T2233.27,766Z" transform="translate(-190 -133)"/><path class="cls-9" d="M2607.14,988.25q-41.61,0-75.2-15.24t-33.59-34.37q0-24.61,37.11-24.61,12.49,0,33.4,3.71t35.74,3.71q48,0,77.34-26.76t29.3-74.8q0-19.53-16.8-19.54-2.73,0-19.14,2.35T2628.43,805q-107,0-144.93-104.29-14.85-41-14.84-82V608.17q0-42.57,14.06-77.35Q2522.57,432,2631.55,432q27,0,57,10.54t47.27,10.55l11.72-.78q17.58,0,29.1,13.86t11.52,40v19.93q0,7.43-5.86,86.52t-5.86,120.12l3.91,90.23q0,117.57-99.22,153.52Q2648.73,988.25,2607.14,988.25ZM2535.46,616v16.41q0,55.47,19.72,88.28t54.11,32.81H2623q43,0,64.45-35.55,16-26.55,16-79.29c.51-5.21.78-9.25.78-12.11l.78-20.32V585.9l-.39-3.9-.39-11.72-.78-15.24q0-32.41-16.41-50.39t-42.58-18h-10.15q-43.76,0-71.29,35T2535.46,616Z" transform="translate(-190 -133)"/><path class="cls-9" d="M3047.8,502.7q-36.72,0-57,36.52t-20.31,111.53q0,33.19,2.73,47.07t8.4,34.37q5.65,20.5,5.66,35.55t-18,27.54q-18,12.5-46.88,12.5l-6.64-.39h-7q-18.75,0-31.06-10.55T2865.38,773v-6.25q0-2.73,7.42-25.78a176.92,176.92,0,0,0,8.59-44.53q1.18-21.48,1.18-57.81V595.28l-.39-7V574.18l-.79-21.09q-.39-7-.39-27.54a106.83,106.83,0,0,0-7.22-39.06q-7.23-18.56-7.23-24,0-23.43,41-23.43t59.37,22.26q5.46,6.65,11.52,6.64t20.12-9.76q39.06-26.57,65.63-26.57h6.25q23.43,0,35.74,10.55t12.3,28.13q0,34.77-38.67,34.76A210.92,210.92,0,0,0,3047.8,502.7Z" transform="translate(-190 -133)"/><path class="cls-9" d="M3466,780.82q0,26.17-52.73,26.18-9.37,0-34.18-9.58t-31.25-9.57q-6.45,0-42.38,13.48t-63.28,13.48h-9q-42.58,0-73.44-27.93t-30.86-76.37q0-98.43,124.61-122.66,80.86-16,83.6-17.18,19.13-9.76,19.14-35.35t-16.21-43Q3323.81,475,3295.89,475t-65.82,19q-37.91,18.94-52,18.94-25.4,0-25.39-34.76,0-21.87,40-41.41T3284,417.15h19.53q38.28,0,68,14.45t45.32,39.07q22.26,34.77,22.26,159,0,70.32,2.93,87.5t13.48,34.57Q3466,769.1,3466,780.82Zm-197.65-18.75h12.11q36.33,0,64.06-31.25,15.24-17.18,15.23-64.06l.39-5.08v-9.76q0-29.29-24.21-29.3h-12.5l-20.32,1.56-10.54,1.17q-36,0-59,20.12t-23,47.85V707q0,21.09,15,38.08T3268.35,762.07Z" transform="translate(-190 -133)"/><path class="cls-9" d="M3695.54,301.92q-25,0-40.24,18.36t-15.23,46.87q0,28.52,8.59,39.06t39.65,26.57q31.05,16,31.05,30.47,0,11.33-31.64,26.56-23.05,10.94-33.59,41.4-18,51.18-18,148.83,0,27,8.4,58.21t8.4,39.06q0,18.75-16.8,31.64T3593,821.84q-26.37,0-43.17-13.67T3533,771.06q0-5.47,6.83-27.35t9.18-35.15q2.34-13.27,2.34-57l-.78-18.36-.39-19.14q0-68.74-5.27-92T3526.59,484q-13.1-14.85-13.09-26.17,0-3.12,29.69-52,5.86-9.75,19.53-53.32t31.64-66.79A119.6,119.6,0,0,1,3639.29,250q26.94-12.5,52.34-12.5h19.53q28.9,0,45.31,12.11t16.41,20.71v6.64q0,27.74-34.77,27.73a105.4,105.4,0,0,1-12.5-.78A295.92,295.92,0,0,0,3695.54,301.92Z" transform="translate(-190 -133)"/><path class="cls-9" d="M3840.69,810.12h-19.92q-16.41,0-28.13-9.37t-11.71-20.51q0-11.13,6.64-32.23t6.64-37.5l.78-9.76.78-20.32v-16l.39-10.55v-127q-1.56-21.1-6.64-35.55L3786,484q-8.19-20.31-8.2-22.27v-7.81q0-22.65,46.88-22.66h14.06q28.5,0,34.76,22.27,1.56,5.86,1.57,68.36v88.67l.78,25.78,1.56,30.08q0,46.49,19.14,78.91a57.07,57.07,0,0,1,7.81,29.49q0,16.22-18.36,25.78T3840.69,810.12Zm-6.25-547.66h12.89q16.8,0,28.91,10.16t12.11,29.69v9.76a43.72,43.72,0,0,1-10.55,28.71,33.46,33.46,0,0,1-27,12.7l-7.81,1.17h-12.9a49.31,49.31,0,0,0-11.71-1.17q-7,0-16.61-9.57t-9.57-21.29a21.31,21.31,0,0,1-.78-4.69l-.78-7.81v-1.95l1.56-12.5q0-9,10.16-21.1T3834.44,262.46Z" transform="translate(-190 -133)"/><path class="cls-9" d="M3988.58,812.85h-9.76Q3946,812.85,3946,791q0-1.56,56.45-81.84t56.44-92.77q0-12.5-50.39-84.77-14.05-20.29-37.3-46.28T3948,449.57q0-22.26,55.86-22.26,40.62,0,57,20.31,3.12,3.92,7.81,16.6T4085.85,500q27.33,50,39.06,50,9.38,0,41-51.56a214,214,0,0,0,18.94-37.89q6.45-17.58,8.79-20.7,11.72-15.24,36.72-15.24,47.25,0,47.26,16.8,0,9.76-54.29,78.91t-54.3,89.25q0,20.13,57.81,96.68a398.9,398.9,0,0,0,40.43,46.1q21.28,20.7,21.29,32.42,0,21.88-64.84,22.27-32.43,0-46.88-18.36-2.73-3.52-9.18-18.36a303.39,303.39,0,0,0-15.43-30.47q-35.15-60.54-44.53-60.55-11.72,0-45.31,55.86a221.09,221.09,0,0,0-17.38,37.3q-7.62,20.91-9.18,23.25Q4023.34,812.86,3988.58,812.85Z" transform="translate(-190 -133)"/></svg>