<svg id="Icon_metro-video-camera" data-name="Icon metro-video-camera" xmlns="http://www.w3.org/2000/svg" viewBox="0 0 86.27 64.71"><defs><style>.cls-1{fill:#d3c09a;}</style></defs><path id="Icon_metro-video-camera-2" data-name="Icon metro-video-camera-2" class="cls-1" d="M32.35,13.48A13.48,13.48,0,1,1,45.83,27h0A13.47,13.47,0,0,1,32.35,13.48ZM0,13.48A13.48,13.48,0,1,1,13.48,27h0A13.48,13.48,0,0,1,0,13.48Zm64.7,27V32.35A5.4,5.4,0,0,0,59.31,27H5.39A5.41,5.41,0,0,0,0,32.35v27a5.41,5.41,0,0,0,5.39,5.39H59.31a5.41,5.41,0,0,0,5.4-5.39v-8.1L86.27,64.7V27L64.71,40.44ZM53.92,53.92H10.78V37.74H53.92Z" transform="translate(0 0)"/></svg>