<svg id="Layer_1" data-name="Layer 1" xmlns="http://www.w3.org/2000/svg" viewBox="0 0 79.43 55.85"><defs><style>.cls-1{fill:#d3c09a;}</style></defs><path id="Icon_awesome-youtube" data-name="Icon awesome-youtube" class="cls-1" d="M77.77,8.74a10,10,0,0,0-7-7.07C64.55,0,39.71,0,39.71,0s-24.83,0-31,1.67a10,10,0,0,0-7,7.07C0,15,0,28,0,28S0,41,1.66,47.22a9.84,9.84,0,0,0,7,7c6.2,1.67,31,1.67,31,1.67s24.84,0,31-1.67a9.84,9.84,0,0,0,7-7C79.43,41,79.43,28,79.43,28s0-13-1.66-19.24ZM31.59,39.79V16.17L52.35,28,31.59,39.79Z"/></svg>